PathFileType	4	(X/Y/Z)	RBDS019\RBDS019runT45.trc
DataRate	CameraRate	NumFrames	NumMarkers	Units	OrigDataRate	OrigDataStartFrame	OrigNumFrames
150.000000	150.000000	6	33	mm	150.000000	3375	4500
Frame#	Time	L.ASIS			L.Heel.Bottom			L.Heel.Lateral			L.Heel.Top			L.Iliac.Crest			L.MT1			L.MT5			L.PSIS			L.Shank.Bottom.Lateral			L.Shank.Bottom.Medial			L.Shank.Top.Lateral			L.Shank.Top.Medial			L.Thigh.Bottom.Lateral			L.Thigh.Bottom.Medial			L.Thigh.Top.Lateral			L.Thigh.Top.Medial			R.ASIS			R.ASY			R.Heel.Bottom			R.Heel.Lateral			R.Heel.Top			R.Iliac.Crest			R.MT1			R.MT5			R.PSIS			R.Shank.Bottom.Lateral			R.Shank.Bottom.Medial			R.Shank.Top.Lateral			R.Shank.Top.Medial			R.Thigh.Bottom.Lateral			R.Thigh.Bottom.Medial			R.Thigh.Top.Lateral			R.Thigh.Top.Medial			
		X1	Y1	Z1	X2	Y2	Z2	X3	Y3	Z3	X4	Y4	Z4	X5	Y5	Z5	X6	Y6	Z6	X7	Y7	Z7	X8	Y8	Z8	X9	Y9	Z9	X10	Y10	Z10	X11	Y11	Z11	X12	Y12	Z12	X13	Y13	Z13	X14	Y14	Z14	X15	Y15	Z15	X16	Y16	Z16	X17	Y17	Z17	X18	Y18	Z18	X19	Y19	Z19	X20	Y20	Z20	X21	Y21	Z21	X22	Y22	Z22	X23	Y23	Z23	X24	Y24	Z24	X25	Y25	Z25	X26	Y26	Z26	X27	Y27	Z27	X28	Y28	Z28	X29	Y29	Z29	X30	Y30	Z30	X31	Y31	Z31	X32	Y32	Z32	X33	Y33	Z33	

3376	22.5	2384.263720892694	920.6277396783984	959.2104004516209	2113.794546467315	486.8215077263692	1007.240694388647	2143.218761866028	464.260123556407	965.8564341898152	2161.594493575899	490.2675189334831	1011.994334246833	2322.195894544646	972.8421668438397	914.1238299353695	2178.22115186885	292.7948131621544	1041.206327971946	2171.749140586377	323.2907371151317	937.6720029434374	2210.69274575696	946.3053443268345	1002.112178325778	2269.232356199674	451.3145151535861	957.5001584302153	2255.731561714685	492.018631768679	985.3725508428707	2342.208630195402	482.7728983893181	942.3433297285029	2332.655185938822	524.6242606660892	973.5635264138286	2510.004148377496	608.3270789920037	914.969847966821	2460.322253203099	567.2076324950109	950.0912853128381	2434.371493471635	685.2941005215661	897.7080213933042	2385.706518169067	645.21467821175	928.7818050538507	2352.452606342215	924.6843916262795	1191.565432407515	nan	nan	nan	1915.288932904534	80.71226999795655	1071.785483372287	1944.374546148265	84.54279787261542	1113.318600986217	1938.24107451412	119.7650463233918	1074.154081504625	2289.94857379387	982.6541766227497	1210.144421550053	2106.479958023717	45.28532741839291	1039.471867024999	2072.958233799307	34.2640422127924	1140.953665227105	2201.563479454502	956.845760644258	1098.904653772473	2036.204228634578	174.1496756062765	1135.923680536535	2002.457773081992	201.6432665712813	1101.372410195583	2066.776128800291	245.4883772430211	1160.869349671854	2035.474528239314	270.8668941625085	1124.66719398434	2218.624415078501	544.9885563294018	1206.669966116289	2167.492733704019	555.3250415423104	1158.270354628522	2222.001622348993	654.1091770057483	1224.905320222816	2170.58898391311	662.9686003641448	1180.648509930601	
3377	22.50666666666667	2385.336850909927	927.1263190971317	959.9439563817358	2126.521239643925	461.162226922141	1008.254733497259	2157.979568111475	442.7365638917411	966.3334875722575	2173.874825689918	468.9905648432564	1013.175405951121	2323.850381752177	979.6633230039319	915.7640616120751	2208.615567722144	272.9384938395129	1036.821235076512	2199.471703462139	305.7683540905217	934.2558973389497	2212.084113543157	951.6266041921	1005.556754166821	2284.881297151599	440.3385024928226	958.0357312818342	2267.768353608593	479.3784194017832	986.2567404351956	2354.958512750824	478.3422866240041	943.5339984092678	2341.702114701997	518.8138763293078	975.1037092613808	2517.687278041291	620.4295234826398	917.1513544951424	2469.274014300928	577.9202864064918	952.62551171287	2439.739858047365	694.7518610123761	899.170264134916	2392.362988119138	653.2278075845742	930.3866468994842	2355.70998333937	924.4768011910337	1191.866345686628	nan	nan	nan	1891.160013410657	92.81692752580976	1072.500940753084	1920.22883632357	94.32970269883883	1114.120412505203	1916.396574926942	130.183852532635	1075.317360501465	2297.133909584135	984.3822298656009	1211.174083057169	2078.54426135171	44.61381560016589	1039.706690009804	2044.613367632413	35.31730522689831	1141.056613856125	2204.324781549688	960.4932227540279	1103.085606632446	2013.362791970195	182.0821774436552	1136.360611828058	1980.305786977247	209.2515999864037	1100.995114450964	2044.400250271949	253.5794336119958	1160.263475396793	2013.689278390612	278.6357224205615	1123.35786323126	2204.790886460453	551.6109452014869	1204.49303833935	2154.405803360709	565.148098971737	1156.233192617647	2214.35925276961	660.0415569283545	1223.73611275035	2163.558158232028	672.1156703263314	1179.591356926823	
3378	22.51333333333334	2386.697919007138	933.4976008642607	961.2350128168757	2141.419335938238	434.7928005272896	1009.199623696685	2174.468786954356	420.6577780350711	966.7996946922916	2187.897300461765	446.9489806839793	1014.324798609413	2326.136555695133	986.5923307429886	917.4334331450227	2240.637065748423	254.0539735042016	1032.589333180169	2228.514258696768	288.9138511079616	931.0194741235157	2213.935455590223	957.2797243226448	1008.765937562606	2301.36096451271	429.2192034136556	958.5364131776954	2280.880420626777	466.1098669730114	987.3493777183357	2367.99201327201	473.5134991057452	944.8292756262823	2351.246602167651	512.0823105461282	976.997606031	2524.120050233816	631.9994205317479	919.4537305960395	2476.828013598807	588.3810709332117	955.2199284923279	2444.278439068195	703.9109872501523	900.5926341354271	2398.029280054306	661.1729064377051	931.8579655998282	2359.047811060836	924.2395647626818	1192.300729894509	nan	nan	nan	1868.740326866991	106.461716070221	1073.36155010097	1897.648185121492	105.5028529770739	1115.048298247966	1896.377783315758	141.8256414641976	1076.607800277241	2305.301711131152	985.8402357597776	1211.882444167189	2051.274992439128	44.5343964743122	1040.08173164379	2016.920878083766	37.14351005696503	1141.318667224746	2207.571056249762	964.4508733341509	1107.122096076757	1992.020535886038	190.7797447415326	1137.024114111725	1959.64746614541	217.5342991045339	1100.769634271157	2023.432533212503	262.5044807765516	1159.808457424407	1993.293391690672	287.1529814463065	1122.15997094309	2191.578398064652	559.2263975854357	1202.446832816931	2142.372035656855	575.8743590122376	1154.073337200242	2207.261115227871	666.6335540521882	1222.637778381529	2157.463862123202	681.8427823301711	1178.351498478951	
3379	22.52	2388.273386099695	939.6026145572589	963.0112227336908	2158.533037030659	407.9235602904452	1009.897017207537	2192.737620212439	398.1058376615467	967.124249438928	2203.708983457041	424.3163305869004	1015.276455103065	2328.815080612105	993.5003778853749	919.0257042938408	2274.144654125736	236.3473172735265	1028.745462764963	2258.82386644503	272.6968662849683	928.1204726097402	2216.196078517791	963.2011984614272	1011.661211900982	2318.660195454443	417.9371396543013	958.9428808603292	2295.120940878805	452.2827964971884	988.5302615581256	2381.3293972388	468.1721149796984	946.157853835323	2361.382723007231	504.4121483252088	979.1198770420938	2529.366021438236	642.8516125840591	921.8624636620751	2482.999066591699	598.3278890295264	957.7394369510754	2448.016533160097	712.6372444671412	901.9768694577803	2402.701106123742	668.8695477752883	933.1121126482495	2362.402711171916	924.0401956891964	1192.822848311707	nan	nan	nan	1848.056187942045	121.5576565417846	1074.329409635729	1876.64286355268	118.0231479579179	1116.057721091877	1878.133332625733	154.6250019798302	1077.979567192221	2314.230272656252	987.1635536292954	1212.160576354723	2024.693012154822	45.3497027885589	1040.55027437643	1989.917473354514	39.9736906151663	1141.676364764018	2211.240957259934	968.7142565690433	1110.910846878918	1972.200273834303	200.1564083355519	1137.867548723862	1940.504024172674	226.4594186557454	1100.694281824559	2003.982076906549	272.1233813819696	1159.494859726912	1974.393416322347	296.3289725035184	1121.105340351301	2179.128946088234	567.6239647356027	1200.578761468764	2131.4667515468	587.1959858148941	1151.849372361306	2200.727431622364	673.7504527849817	1221.593059655228	2152.28068706903	691.9251905970585	1176.914950348852	
3380	22.52666666666667	2389.982732858074	945.3170929639847	965.1474623916791	2177.836652208541	380.749727456735	1010.233604625439	2212.791039352087	375.1629632519754	967.2213694504012	2221.295403092925	401.2530064114018	1015.91327107374	2331.655365217074	1000.259037552325	920.4526240391183	2308.937680170339	219.9711935902467	1025.520309279347	2290.323391417644	257.0750771346682	925.7147132905839	2218.795280271236	969.3120171264086	1014.18689769796	2336.723543161941	406.455764041636	959.2217601278478	2310.478242250463	437.9579261565808	989.7017786107962	2394.954104883725	462.2044681699472	947.4541308929538	2372.147008311794	495.7964557241716	981.3456519955979	2533.502301016875	652.8320725864843	924.3442108416966	2487.82368398461	607.5294196208404	960.0275312890377	2451.002825987087	720.8278900721749	903.3285514212096	2406.401389871112	676.1734997322325	934.0759440407187	2365.725606042141	923.9475512865735	1193.373421538535	nan	nan	nan	1829.041937060484	137.9872263450922	1075.344770328974	1857.143894384708	131.825691531184	1117.080725679982	1861.518902929672	168.5075562544835	1079.364622683873	2323.642868297127	988.499553923462	1211.942191070718	1998.803654846726	47.3732039775607	1041.022899284328	1963.626022571555	44.03658448312677	1142.02611251144	2215.241832709963	973.2575639185401	1114.368982654496	1953.853239697609	210.1467269133103	1138.812992466674	1922.831552439036	236.0261093668537	1100.739950023444	1986.096254485665	282.304345199429	1159.292881283758	1957.042863051747	306.092659876653	1120.205068145052	2167.609189548881	576.5340525424655	1198.924196814865	2121.753021616415	598.7517840874342	1149.632831185975	2194.787926333502	681.2154404848304	1220.582334068502	2147.957495574156	702.0984680100584	1175.292709500141	
3381	22.53333333333333	2391.74292784328	950.5367766082669	967.4793420612057	2199.249817754291	353.4554154603295	1010.169203880744	2234.595738514814	351.9205227645003	967.0584268045565	2240.593845858929	377.9079899521434	1016.17608803628	2334.452290903848	1006.740554968502	921.6487282608275	2344.765821271614	205.0330881961138	1023.124745818749	2322.910316029367	242.0154782240221	923.9469089256665	2221.645061213902	975.5192617605445	1016.309256403784	2355.461618034839	394.7281215418474	959.3682445021782	2326.884785404523	423.1852058814723	990.7963513421302	2408.819435198099	455.5032176196522	948.6611684332031	2383.52240682561	486.2347281548232	983.5578186002938	2536.612973574131	661.8128974104047	926.8435282087436	2491.354757357166	615.7923040723352	961.919792152802	2453.302687501616	728.4061874625406	904.6503379716138	2409.175944273079	682.9780861000697	934.689385258779	2368.977841265107	924.0303440439895	1193.887938078807	nan	nan	nan	1811.549434870781	155.6134669933933	1076.330658409994	1839.012399265249	146.8254107087957	1118.031143549696	1846.312351631592	183.3963399106764	1080.678199111248	2333.217066278668	989.9874763698022	1211.215332623336	1973.604140287886	50.90945625712276	1041.373692994308	1938.060518901032	49.54381599388509	1142.233200377567	2219.453631323873	978.0338427651162	1117.432472804756	1936.868393717879	220.7147805590702	1139.759419064408	1906.531088664776	246.2695146840399	1100.854664031521	1969.761981604762	292.937085383437	1159.158013481169	1941.244471221594	316.4008416979291	1119.451873454039	2157.203876499103	585.6449101280517	1197.506512904316	2113.285892146429	610.1544514830763	1147.504461345442	2189.487974856039	688.8177421797585	1219.591860724629	2144.430115483752	712.0767665886672	1173.526693279049	
